<svg width="194" height="194" viewBox="0 0 194 194" fill="none" xmlns="http://www.w3.org/2000/svg">
<circle cx="97" cy="97" r="97" fill="#FF5D5D"/>
<path d="M92.166 126.777C86.8926 123.652 82.9863 119.355 80.4473 113.887C78.1035 108.223 76.248 102.754 74.8809 97.4805C73.5137 92.207 72.3418 87.8125 71.3652 84.2969C70.3887 80.5859 68.6309 79.1211 66.0918 79.9023C63.748 80.6836 60.2324 84.3945 55.5449 91.0352C50.8574 97.4805 44.3145 108.223 35.916 123.262C32.4004 124.434 30.1543 123.75 29.1777 121.211C28.3965 118.477 28.4941 114.766 29.4707 110.078C30.6426 105.391 32.498 100.215 35.0371 94.5508C37.7715 88.6914 40.8965 83.3203 44.4121 78.4375C48.123 73.3594 52.0293 69.2578 56.1309 66.1328C60.2324 62.8125 64.2363 61.3477 68.1426 61.7383C72.2441 61.9336 76.0527 64.4727 79.5684 69.3555C83.2793 74.2383 86.4043 82.2461 88.9434 93.3789C90.7012 101.777 93.1426 107.539 96.2676 110.664C99.5879 113.789 103.299 115.254 107.4 115.059C111.697 114.863 116.287 113.301 121.17 110.371C126.053 107.441 131.131 104.121 136.404 100.41C141.678 96.6992 147.049 92.9883 152.518 89.2773C157.986 85.3711 163.26 82.3438 168.338 80.1953C169.51 81.9531 168.924 84.6875 166.58 88.3984C164.432 92.1094 161.111 96.1133 156.619 100.41C152.322 104.512 147.244 108.613 141.385 112.715C135.525 116.816 129.568 120.332 123.514 123.262C117.459 125.996 111.6 127.852 105.936 128.828C100.467 129.805 95.877 129.121 92.166 126.777Z" fill="white"/>
</svg>
